<svg width="10" height="6" viewBox="0 0 10 6" fill="none" xmlns="http://www.w3.org/2000/svg">
<path fill-rule="evenodd" clip-rule="evenodd" d="M4.27452 4.41949C4.11546 4.31861 4.00731 4.20513 3.88006 4.04121C3.59377 3.66925 2.08594 2.13094 1.77419 2.05528C1.37338 1.96071 0.902575 2.26333 0.959835 2.74878C1.02346 3.31619 2.49948 4.63384 3.25657 5.30212C3.86098 5.8191 4.18545 6.30455 4.78985 5.76236C4.95527 5.61735 5.0507 5.56061 5.20976 5.4093L8.42264 2.40203C8.70258 2.11833 8.90617 1.90397 9.21791 1.6581C10.5731 0.586323 9.73325 0 9.26881 0C8.93162 0 8.21906 0.718718 7.94548 0.989814L6.10046 2.69835C5.89051 2.88118 5.706 3.08923 5.50241 3.28467L4.27452 4.41949Z" fill="#2BA44B"/>
</svg>
