<svg width="7" height="8" viewBox="0 0 7 8" fill="none" xmlns="http://www.w3.org/2000/svg">
<path d="M0.766881 7.45651C0.58337 7.45651 0.39987 7.3889 0.254993 7.24402C-0.0251019 6.96393 -0.0251019 6.50032 0.254993 6.22023L5.7217 0.753528C6.00179 0.473433 6.4654 0.473433 6.7455 0.753528C7.02559 1.03362 7.02559 1.49722 6.7455 1.77732L1.27878 7.24402C1.14356 7.3889 0.950392 7.45651 0.766881 7.45651Z" fill="#F54848"/>
<path d="M6.2336 7.45651C6.05009 7.45651 5.86658 7.3889 5.7217 7.24402L0.254993 1.77732C-0.0251019 1.49722 -0.0251019 1.03362 0.254993 0.753528C0.535079 0.473433 0.998685 0.473433 1.27878 0.753528L6.7455 6.22023C7.02559 6.50032 7.02559 6.96393 6.7455 7.24402C6.60062 7.3889 6.41711 7.45651 6.2336 7.45651Z" fill="#F54848"/>
</svg>