<?xml version="1.0" encoding="utf-8"?><svg xmlns="http://www.w3.org/2000/svg" xmlns:xlink="http://www.w3.org/1999/xlink"><symbol viewBox="0 0 10 6" fill="none" id="check" xmlns="http://www.w3.org/2000/svg">
<path fill-rule="evenodd" clip-rule="evenodd" d="M4.27452 4.41949C4.11546 4.31861 4.00731 4.20513 3.88006 4.04121C3.59377 3.66925 2.08594 2.13094 1.77419 2.05528C1.37338 1.96071 0.902575 2.26333 0.959835 2.74878C1.02346 3.31619 2.49948 4.63384 3.25657 5.30212C3.86098 5.8191 4.18545 6.30455 4.78985 5.76236C4.95527 5.61735 5.0507 5.56061 5.20976 5.4093L8.42264 2.40203C8.70258 2.11833 8.90617 1.90397 9.21791 1.6581C10.5731 0.586323 9.73325 0 9.26881 0C8.93162 0 8.21906 0.718718 7.94548 0.989814L6.10046 2.69835C5.89051 2.88118 5.706 3.08923 5.50241 3.28467L4.27452 4.41949Z" fill="#2BA44B"/>
</symbol><symbol viewBox="0 0 7 8" fill="none" id="cross" xmlns="http://www.w3.org/2000/svg">
<path d="M0.766881 7.45651C0.58337 7.45651 0.39987 7.3889 0.254993 7.24402C-0.0251019 6.96393 -0.0251019 6.50032 0.254993 6.22023L5.7217 0.753528C6.00179 0.473433 6.4654 0.473433 6.7455 0.753528C7.02559 1.03362 7.02559 1.49722 6.7455 1.77732L1.27878 7.24402C1.14356 7.3889 0.950392 7.45651 0.766881 7.45651Z" fill="#F54848"/>
<path d="M6.2336 7.45651C6.05009 7.45651 5.86658 7.3889 5.7217 7.24402L0.254993 1.77732C-0.0251019 1.49722 -0.0251019 1.03362 0.254993 0.753528C0.535079 0.473433 0.998685 0.473433 1.27878 0.753528L6.7455 6.22023C7.02559 6.50032 7.02559 6.96393 6.7455 7.24402C6.60062 7.3889 6.41711 7.45651 6.2336 7.45651Z" fill="#F54848"/>
</symbol></svg>